<svg width="418" height="44" viewBox="0 0 418 44" fill="none" xmlns="http://www.w3.org/2000/svg">
<rect x="1" y="1" width="416" height="42" rx="21" stroke="#C3C3C3" stroke-width="2"/>
<path d="M17.4091 27.5V15.8636H21.3409C22.2538 15.8636 23 16.0284 23.5795 16.358C24.1629 16.6837 24.5947 17.125 24.875 17.6818C25.1553 18.2386 25.2955 18.8598 25.2955 19.5455C25.2955 20.2311 25.1553 20.8542 24.875 21.4148C24.5985 21.9754 24.1705 22.4223 23.5909 22.7557C23.0114 23.0852 22.2689 23.25 21.3636 23.25H18.5455V22H21.3182C21.9432 22 22.4451 21.892 22.8239 21.6761C23.2027 21.4602 23.4773 21.1686 23.6477 20.8011C23.822 20.4299 23.9091 20.0114 23.9091 19.5455C23.9091 19.0795 23.822 18.6629 23.6477 18.2955C23.4773 17.928 23.2008 17.6402 22.8182 17.4318C22.4356 17.2197 21.928 17.1136 21.2955 17.1136H18.8182V27.5H17.4091ZM30.9489 27.6818C30.108 27.6818 29.3826 27.4962 28.7727 27.125C28.1667 26.75 27.6989 26.2273 27.3693 25.5568C27.0436 24.8826 26.8807 24.0985 26.8807 23.2045C26.8807 22.3106 27.0436 21.5227 27.3693 20.8409C27.6989 20.1553 28.1572 19.6212 28.7443 19.2386C29.3352 18.8523 30.0246 18.6591 30.8125 18.6591C31.267 18.6591 31.7159 18.7348 32.1591 18.8864C32.6023 19.0379 33.0057 19.2841 33.3693 19.625C33.733 19.9621 34.0227 20.4091 34.2386 20.9659C34.4545 21.5227 34.5625 22.2083 34.5625 23.0227V23.5909H27.8352V22.4318H33.1989C33.1989 21.9394 33.1004 21.5 32.9034 21.1136C32.7102 20.7273 32.4337 20.4223 32.0739 20.1989C31.7178 19.9754 31.2973 19.8636 30.8125 19.8636C30.2784 19.8636 29.8163 19.9962 29.4261 20.2614C29.0398 20.5227 28.7424 20.8636 28.5341 21.2841C28.3258 21.7045 28.2216 22.1553 28.2216 22.6364V23.4091C28.2216 24.0682 28.3352 24.6269 28.5625 25.0852C28.7936 25.5398 29.1136 25.8864 29.5227 26.125C29.9318 26.3598 30.4072 26.4773 30.9489 26.4773C31.3011 26.4773 31.6193 26.428 31.9034 26.3295C32.1913 26.2273 32.4394 26.0758 32.6477 25.875C32.8561 25.6705 33.017 25.4167 33.1307 25.1136L34.4261 25.4773C34.2898 25.9167 34.0606 26.303 33.7386 26.6364C33.4167 26.9659 33.0189 27.2235 32.5455 27.4091C32.072 27.5909 31.5398 27.6818 30.9489 27.6818ZM40.3977 18.7727V19.9091H35.875V18.7727H40.3977ZM37.1932 16.6818H38.5341V25C38.5341 25.3788 38.589 25.6629 38.6989 25.8523C38.8125 26.0379 38.9564 26.1629 39.1307 26.2273C39.3087 26.2879 39.4962 26.3182 39.6932 26.3182C39.8409 26.3182 39.9621 26.3106 40.0568 26.2955C40.1515 26.2765 40.2273 26.2614 40.2841 26.25L40.5568 27.4545C40.4659 27.4886 40.339 27.5227 40.1761 27.5568C40.0133 27.5947 39.8068 27.6136 39.5568 27.6136C39.178 27.6136 38.8068 27.5322 38.4432 27.3693C38.0833 27.2064 37.7841 26.9583 37.5455 26.625C37.3106 26.2917 37.1932 25.8712 37.1932 25.3636V16.6818ZM48.4403 20.7273L47.2358 21.0682C47.16 20.8674 47.0483 20.6723 46.9006 20.483C46.7566 20.2898 46.5597 20.1307 46.3097 20.0057C46.0597 19.8807 45.7396 19.8182 45.3494 19.8182C44.8153 19.8182 44.3703 19.9413 44.0142 20.1875C43.6619 20.4299 43.4858 20.7386 43.4858 21.1136C43.4858 21.447 43.607 21.7102 43.8494 21.9034C44.0919 22.0966 44.4706 22.2576 44.9858 22.3864L46.2812 22.7045C47.0616 22.8939 47.643 23.1837 48.0256 23.5739C48.4081 23.9602 48.5994 24.4583 48.5994 25.0682C48.5994 25.5682 48.4555 26.0152 48.1676 26.4091C47.8835 26.803 47.4858 27.1136 46.9744 27.3409C46.4631 27.5682 45.8684 27.6818 45.1903 27.6818C44.3002 27.6818 43.5634 27.4886 42.9801 27.1023C42.3968 26.7159 42.0275 26.1515 41.8722 25.4091L43.1449 25.0909C43.2661 25.5606 43.4953 25.9129 43.8324 26.1477C44.1733 26.3826 44.6184 26.5 45.1676 26.5C45.7926 26.5 46.2888 26.3674 46.6562 26.1023C47.0275 25.8333 47.2131 25.5114 47.2131 25.1364C47.2131 24.8333 47.107 24.5795 46.8949 24.375C46.6828 24.1667 46.357 24.0114 45.9176 23.9091L44.4631 23.5682C43.6638 23.3788 43.0767 23.0852 42.7017 22.6875C42.3305 22.286 42.1449 21.7841 42.1449 21.1818C42.1449 20.6894 42.2831 20.2538 42.5597 19.875C42.84 19.4962 43.2206 19.1989 43.7017 18.983C44.1866 18.767 44.7358 18.6591 45.3494 18.6591C46.2131 18.6591 46.8911 18.8485 47.3835 19.2273C47.8797 19.6061 48.232 20.1061 48.4403 20.7273ZM54.1634 27.6818C53.3755 27.6818 52.6842 27.4943 52.0895 27.1193C51.4986 26.7443 51.0365 26.2197 50.7031 25.5455C50.3736 24.8712 50.2088 24.0833 50.2088 23.1818C50.2088 22.2727 50.3736 21.4792 50.7031 20.8011C51.0365 20.1231 51.4986 19.5966 52.0895 19.2216C52.6842 18.8466 53.3755 18.6591 54.1634 18.6591C54.9512 18.6591 55.6406 18.8466 56.2315 19.2216C56.8262 19.5966 57.2884 20.1231 57.6179 20.8011C57.9512 21.4792 58.1179 22.2727 58.1179 23.1818C58.1179 24.0833 57.9512 24.8712 57.6179 25.5455C57.2884 26.2197 56.8262 26.7443 56.2315 27.1193C55.6406 27.4943 54.9512 27.6818 54.1634 27.6818ZM54.1634 26.4773C54.7618 26.4773 55.2543 26.3239 55.6406 26.017C56.027 25.7102 56.313 25.3068 56.4986 24.8068C56.6842 24.3068 56.777 23.7652 56.777 23.1818C56.777 22.5985 56.6842 22.0549 56.4986 21.5511C56.313 21.0473 56.027 20.6402 55.6406 20.3295C55.2543 20.0189 54.7618 19.8636 54.1634 19.8636C53.5649 19.8636 53.0724 20.0189 52.6861 20.3295C52.2997 20.6402 52.0137 21.0473 51.8281 21.5511C51.6425 22.0549 51.5497 22.5985 51.5497 23.1818C51.5497 23.7652 51.6425 24.3068 51.8281 24.8068C52.0137 25.3068 52.2997 25.7102 52.6861 26.017C53.0724 26.3239 53.5649 26.4773 54.1634 26.4773ZM61.5057 22.25V27.5H60.1648V18.7727H61.4602V20.1364H61.5739C61.7784 19.6932 62.089 19.3371 62.5057 19.0682C62.9223 18.7955 63.4602 18.6591 64.1193 18.6591C64.7102 18.6591 65.2273 18.7803 65.6705 19.0227C66.1136 19.2614 66.4583 19.625 66.7045 20.1136C66.9508 20.5985 67.0739 21.2121 67.0739 21.9545V27.5H65.733V22.0455C65.733 21.3598 65.5549 20.8258 65.1989 20.4432C64.8428 20.0568 64.3542 19.8636 63.733 19.8636C63.3049 19.8636 62.9223 19.9564 62.5852 20.142C62.2519 20.3277 61.9886 20.5985 61.7955 20.9545C61.6023 21.3106 61.5057 21.7424 61.5057 22.25ZM72.0923 27.7045C71.5393 27.7045 71.0374 27.6004 70.5866 27.392C70.1359 27.1799 69.7779 26.875 69.5128 26.4773C69.2476 26.0758 69.1151 25.5909 69.1151 25.0227C69.1151 24.5227 69.2135 24.1174 69.4105 23.8068C69.6075 23.4924 69.8707 23.2462 70.2003 23.0682C70.5298 22.8902 70.8935 22.7576 71.2912 22.6705C71.6927 22.5795 72.0961 22.5076 72.5014 22.4545C73.0317 22.3864 73.4616 22.3352 73.7912 22.3011C74.1245 22.2633 74.367 22.2008 74.5185 22.1136C74.6738 22.0265 74.7514 21.875 74.7514 21.6591V21.6136C74.7514 21.053 74.598 20.6174 74.2912 20.3068C73.9882 19.9962 73.5279 19.8409 72.9105 19.8409C72.2704 19.8409 71.7685 19.9811 71.4048 20.2614C71.0412 20.5417 70.7855 20.8409 70.6378 21.1591L69.3651 20.7045C69.5923 20.1742 69.8954 19.7614 70.2741 19.4659C70.6567 19.1667 71.0734 18.9583 71.5241 18.8409C71.9787 18.7197 72.4257 18.6591 72.8651 18.6591C73.1454 18.6591 73.4673 18.6932 73.831 18.7614C74.1984 18.8258 74.5526 18.9602 74.8935 19.1648C75.2382 19.3693 75.5241 19.678 75.7514 20.0909C75.9787 20.5038 76.0923 21.0568 76.0923 21.75V27.5H74.7514V26.3182H74.6832C74.5923 26.5076 74.4408 26.7102 74.2287 26.9261C74.0166 27.142 73.7344 27.3258 73.3821 27.4773C73.0298 27.6288 72.5999 27.7045 72.0923 27.7045ZM72.2969 26.5C72.8272 26.5 73.2741 26.3958 73.6378 26.1875C74.0052 25.9792 74.2817 25.7102 74.4673 25.3807C74.6567 25.0511 74.7514 24.7045 74.7514 24.3409V23.1136C74.6946 23.1818 74.5696 23.2443 74.3764 23.3011C74.187 23.3542 73.9673 23.4015 73.7173 23.4432C73.4711 23.4811 73.2306 23.5152 72.9957 23.5455C72.7647 23.572 72.5772 23.5947 72.4332 23.6136C72.0848 23.6591 71.759 23.733 71.456 23.8352C71.1567 23.9337 70.9143 24.0833 70.7287 24.2841C70.5469 24.4811 70.456 24.75 70.456 25.0909C70.456 25.5568 70.6283 25.9091 70.973 26.1477C71.3215 26.3826 71.7628 26.5 72.2969 26.5ZM79.8807 15.8636V27.5H78.5398V15.8636H79.8807ZM82.3366 27.5V18.7727H83.6776V27.5H82.3366ZM83.0185 17.3182C82.7571 17.3182 82.5317 17.2292 82.3423 17.0511C82.1567 16.8731 82.0639 16.6591 82.0639 16.4091C82.0639 16.1591 82.1567 15.9451 82.3423 15.767C82.5317 15.589 82.7571 15.5 83.0185 15.5C83.2798 15.5 83.5033 15.589 83.6889 15.767C83.8783 15.9451 83.973 16.1591 83.973 16.4091C83.973 16.6591 83.8783 16.8731 83.6889 17.0511C83.5033 17.2292 83.2798 17.3182 83.0185 17.3182ZM89.929 18.7727V19.9091H85.4062V18.7727H89.929ZM86.7244 16.6818H88.0653V25C88.0653 25.3788 88.1203 25.6629 88.2301 25.8523C88.3438 26.0379 88.4877 26.1629 88.6619 26.2273C88.84 26.2879 89.0275 26.3182 89.2244 26.3182C89.3722 26.3182 89.4934 26.3106 89.5881 26.2955C89.6828 26.2765 89.7585 26.2614 89.8153 26.25L90.0881 27.4545C89.9972 27.4886 89.8703 27.5227 89.7074 27.5568C89.5445 27.5947 89.3381 27.6136 89.0881 27.6136C88.7093 27.6136 88.3381 27.5322 87.9744 27.3693C87.6146 27.2064 87.3153 26.9583 87.0767 26.625C86.8419 26.2917 86.7244 25.8712 86.7244 25.3636V16.6818ZM92.8097 30.7727C92.5824 30.7727 92.3797 30.7538 92.2017 30.7159C92.0237 30.6818 91.9006 30.6477 91.8324 30.6136L92.1733 29.4318C92.4991 29.5152 92.7869 29.5455 93.0369 29.5227C93.2869 29.5 93.5085 29.3883 93.7017 29.1875C93.8987 28.9905 94.0786 28.6705 94.2415 28.2273L94.4915 27.5455L91.2642 18.7727H92.7188L95.1278 25.7273H95.2188L97.6278 18.7727H99.0824L95.3778 28.7727C95.2112 29.2235 95.0047 29.5966 94.7585 29.892C94.5123 30.1913 94.2263 30.4129 93.9006 30.5568C93.5786 30.7008 93.215 30.7727 92.8097 30.7727ZM109.148 18.7727V19.9091H104.625V18.7727H109.148ZM105.943 16.6818H107.284V25C107.284 25.3788 107.339 25.6629 107.449 25.8523C107.563 26.0379 107.706 26.1629 107.881 26.2273C108.059 26.2879 108.246 26.3182 108.443 26.3182C108.591 26.3182 108.712 26.3106 108.807 26.2955C108.902 26.2765 108.977 26.2614 109.034 26.25L109.307 27.4545C109.216 27.4886 109.089 27.5227 108.926 27.5568C108.763 27.5947 108.557 27.6136 108.307 27.6136C107.928 27.6136 107.557 27.5322 107.193 27.3693C106.833 27.2064 106.534 26.9583 106.295 26.625C106.061 26.2917 105.943 25.8712 105.943 25.3636V16.6818ZM114.73 27.6818C113.889 27.6818 113.164 27.4962 112.554 27.125C111.948 26.75 111.48 26.2273 111.151 25.5568C110.825 24.8826 110.662 24.0985 110.662 23.2045C110.662 22.3106 110.825 21.5227 111.151 20.8409C111.48 20.1553 111.938 19.6212 112.526 19.2386C113.116 18.8523 113.806 18.6591 114.594 18.6591C115.048 18.6591 115.497 18.7348 115.94 18.8864C116.384 19.0379 116.787 19.2841 117.151 19.625C117.514 19.9621 117.804 20.4091 118.02 20.9659C118.236 21.5227 118.344 22.2083 118.344 23.0227V23.5909H111.616V22.4318H116.98C116.98 21.9394 116.882 21.5 116.685 21.1136C116.491 20.7273 116.215 20.4223 115.855 20.1989C115.499 19.9754 115.079 19.8636 114.594 19.8636C114.06 19.8636 113.598 19.9962 113.207 20.2614C112.821 20.5227 112.524 20.8636 112.315 21.2841C112.107 21.7045 112.003 22.1553 112.003 22.6364V23.4091C112.003 24.0682 112.116 24.6269 112.344 25.0852C112.575 25.5398 112.895 25.8864 113.304 26.125C113.713 26.3598 114.188 26.4773 114.73 26.4773C115.082 26.4773 115.401 26.428 115.685 26.3295C115.973 26.2273 116.221 26.0758 116.429 25.875C116.637 25.6705 116.798 25.4167 116.912 25.1136L118.207 25.4773C118.071 25.9167 117.842 26.303 117.52 26.6364C117.198 26.9659 116.8 27.2235 116.327 27.4091C115.853 27.5909 115.321 27.6818 114.73 27.6818ZM126.565 20.7273L125.361 21.0682C125.285 20.8674 125.173 20.6723 125.026 20.483C124.882 20.2898 124.685 20.1307 124.435 20.0057C124.185 19.8807 123.865 19.8182 123.474 19.8182C122.94 19.8182 122.495 19.9413 122.139 20.1875C121.787 20.4299 121.611 20.7386 121.611 21.1136C121.611 21.447 121.732 21.7102 121.974 21.9034C122.217 22.0966 122.596 22.2576 123.111 22.3864L124.406 22.7045C125.187 22.8939 125.768 23.1837 126.151 23.5739C126.533 23.9602 126.724 24.4583 126.724 25.0682C126.724 25.5682 126.58 26.0152 126.293 26.4091C126.009 26.803 125.611 27.1136 125.099 27.3409C124.588 27.5682 123.993 27.6818 123.315 27.6818C122.425 27.6818 121.688 27.4886 121.105 27.1023C120.522 26.7159 120.152 26.1515 119.997 25.4091L121.27 25.0909C121.391 25.5606 121.62 25.9129 121.957 26.1477C122.298 26.3826 122.743 26.5 123.293 26.5C123.918 26.5 124.414 26.3674 124.781 26.1023C125.152 25.8333 125.338 25.5114 125.338 25.1364C125.338 24.8333 125.232 24.5795 125.02 24.375C124.808 24.1667 124.482 24.0114 124.043 23.9091L122.588 23.5682C121.789 23.3788 121.202 23.0852 120.827 22.6875C120.455 22.286 120.27 21.7841 120.27 21.1818C120.27 20.6894 120.408 20.2538 120.685 19.875C120.965 19.4962 121.346 19.1989 121.827 18.983C122.312 18.767 122.861 18.6591 123.474 18.6591C124.338 18.6591 125.016 18.8485 125.509 19.2273C126.005 19.6061 126.357 20.1061 126.565 20.7273ZM132.538 18.7727V19.9091H128.016V18.7727H132.538ZM129.334 16.6818H130.675V25C130.675 25.3788 130.73 25.6629 130.839 25.8523C130.953 26.0379 131.097 26.1629 131.271 26.2273C131.449 26.2879 131.637 26.3182 131.834 26.3182C131.982 26.3182 132.103 26.3106 132.197 26.2955C132.292 26.2765 132.368 26.2614 132.425 26.25L132.697 27.4545C132.607 27.4886 132.48 27.5227 132.317 27.5568C132.154 27.5947 131.947 27.6136 131.697 27.6136C131.319 27.6136 130.947 27.5322 130.584 27.3693C130.224 27.2064 129.925 26.9583 129.686 26.625C129.451 26.2917 129.334 25.8712 129.334 25.3636V16.6818ZM143.169 15.3182L139.419 29.25H138.192L141.942 15.3182H143.169ZM149.44 27.5V15.8636H153.372C154.285 15.8636 155.031 16.0284 155.611 16.358C156.194 16.6837 156.626 17.125 156.906 17.6818C157.187 18.2386 157.327 18.8598 157.327 19.5455C157.327 20.2311 157.187 20.8542 156.906 21.4148C156.63 21.9754 156.202 22.4223 155.622 22.7557C155.043 23.0852 154.3 23.25 153.395 23.25H150.577V22H153.349C153.974 22 154.476 21.892 154.855 21.6761C155.234 21.4602 155.509 21.1686 155.679 20.8011C155.853 20.4299 155.94 20.0114 155.94 19.5455C155.94 19.0795 155.853 18.6629 155.679 18.2955C155.509 17.928 155.232 17.6402 154.849 17.4318C154.467 17.2197 153.959 17.1136 153.327 17.1136H150.849V27.5H149.44ZM162.98 27.6818C162.139 27.6818 161.414 27.4962 160.804 27.125C160.198 26.75 159.73 26.2273 159.401 25.5568C159.075 24.8826 158.912 24.0985 158.912 23.2045C158.912 22.3106 159.075 21.5227 159.401 20.8409C159.73 20.1553 160.188 19.6212 160.776 19.2386C161.366 18.8523 162.056 18.6591 162.844 18.6591C163.298 18.6591 163.747 18.7348 164.19 18.8864C164.634 19.0379 165.037 19.2841 165.401 19.625C165.764 19.9621 166.054 20.4091 166.27 20.9659C166.486 21.5227 166.594 22.2083 166.594 23.0227V23.5909H159.866V22.4318H165.23C165.23 21.9394 165.132 21.5 164.935 21.1136C164.741 20.7273 164.465 20.4223 164.105 20.1989C163.749 19.9754 163.329 19.8636 162.844 19.8636C162.31 19.8636 161.848 19.9962 161.457 20.2614C161.071 20.5227 160.774 20.8636 160.565 21.2841C160.357 21.7045 160.253 22.1553 160.253 22.6364V23.4091C160.253 24.0682 160.366 24.6269 160.594 25.0852C160.825 25.5398 161.145 25.8864 161.554 26.125C161.963 26.3598 162.438 26.4773 162.98 26.4773C163.332 26.4773 163.651 26.428 163.935 26.3295C164.223 26.2273 164.471 26.0758 164.679 25.875C164.887 25.6705 165.048 25.4167 165.162 25.1136L166.457 25.4773C166.321 25.9167 166.092 26.303 165.77 26.6364C165.448 26.9659 165.05 27.2235 164.577 27.4091C164.103 27.5909 163.571 27.6818 162.98 27.6818ZM172.429 18.7727V19.9091H167.906V18.7727H172.429ZM169.224 16.6818H170.565V25C170.565 25.3788 170.62 25.6629 170.73 25.8523C170.844 26.0379 170.988 26.1629 171.162 26.2273C171.34 26.2879 171.527 26.3182 171.724 26.3182C171.872 26.3182 171.993 26.3106 172.088 26.2955C172.183 26.2765 172.259 26.2614 172.315 26.25L172.588 27.4545C172.497 27.4886 172.37 27.5227 172.207 27.5568C172.045 27.5947 171.838 27.6136 171.588 27.6136C171.209 27.6136 170.838 27.5322 170.474 27.3693C170.115 27.2064 169.815 26.9583 169.577 26.625C169.342 26.2917 169.224 25.8712 169.224 25.3636V16.6818ZM179.128 15.8636H180.81L184.764 25.5227H184.901L188.855 15.8636H190.537V27.5H189.219V18.6591H189.105L185.469 27.5H184.196L180.56 18.6591H180.446V27.5H179.128V15.8636ZM193.362 27.5V15.8636H197.43C198.241 15.8636 198.91 16.0038 199.436 16.2841C199.963 16.5606 200.355 16.9337 200.612 17.4034C200.87 17.8693 200.999 18.3864 200.999 18.9545C200.999 19.4545 200.91 19.8674 200.732 20.1932C200.557 20.5189 200.326 20.7765 200.038 20.9659C199.754 21.1553 199.446 21.2955 199.112 21.3864V21.5C199.468 21.5227 199.826 21.6477 200.186 21.875C200.546 22.1023 200.847 22.428 201.089 22.8523C201.332 23.2765 201.453 23.7955 201.453 24.4091C201.453 24.9924 201.321 25.517 201.055 25.983C200.79 26.4489 200.372 26.8182 199.8 27.0909C199.228 27.3636 198.483 27.5 197.567 27.5H193.362ZM194.771 26.25H197.567C198.487 26.25 199.141 26.072 199.527 25.7159C199.917 25.3561 200.112 24.9205 200.112 24.4091C200.112 24.0152 200.012 23.6515 199.811 23.3182C199.61 22.9811 199.324 22.7121 198.953 22.5114C198.582 22.3068 198.143 22.2045 197.635 22.2045H194.771V26.25ZM194.771 20.9773H197.385C197.809 20.9773 198.192 20.8939 198.533 20.7273C198.877 20.5606 199.15 20.3258 199.351 20.0227C199.555 19.7197 199.658 19.3636 199.658 18.9545C199.658 18.4432 199.48 18.0095 199.124 17.6534C198.768 17.2936 198.203 17.1136 197.43 17.1136H194.771V20.9773ZM203.132 17.1136V15.8636H211.859V17.1136H208.2V27.5H206.791V17.1136H203.132ZM215.443 15.8636V27.5H214.034V15.8636H215.443ZM226.7 15.3182L222.95 29.25H221.723L225.473 15.3182H226.7ZM232.972 27.5V15.8636H239.949V17.1136H234.381V21.0455H239.426V22.2955H234.381V27.5H232.972ZM247.134 23.9318V18.7727H248.474V27.5H247.134V26.0227H247.043C246.838 26.4659 246.52 26.8428 246.088 27.1534C245.656 27.4602 245.111 27.6136 244.452 27.6136C243.906 27.6136 243.421 27.4943 242.997 27.2557C242.573 27.0133 242.24 26.6496 241.997 26.1648C241.755 25.6761 241.634 25.0606 241.634 24.3182V18.7727H242.974V24.2273C242.974 24.8636 243.152 25.3712 243.509 25.75C243.868 26.1288 244.327 26.3182 244.884 26.3182C245.217 26.3182 245.556 26.233 245.901 26.0625C246.249 25.892 246.541 25.6307 246.776 25.2784C247.014 24.9261 247.134 24.4773 247.134 23.9318ZM250.93 27.5V18.7727H252.226V20.0909H252.317C252.476 19.6591 252.764 19.3087 253.18 19.0398C253.597 18.7708 254.067 18.6364 254.589 18.6364C254.688 18.6364 254.811 18.6383 254.959 18.642C255.107 18.6458 255.218 18.6515 255.294 18.6591V20.0227C255.249 20.0114 255.144 19.9943 254.982 19.9716C254.822 19.9451 254.654 19.9318 254.476 19.9318C254.052 19.9318 253.673 20.0208 253.339 20.1989C253.01 20.3731 252.749 20.6155 252.555 20.9261C252.366 21.233 252.271 21.5833 252.271 21.9773V27.5H250.93ZM263.429 18.7727C263.361 18.197 263.084 17.75 262.599 17.4318C262.115 17.1136 261.52 16.9545 260.815 16.9545C260.3 16.9545 259.849 17.0379 259.463 17.2045C259.08 17.3712 258.781 17.6004 258.565 17.892C258.353 18.1837 258.247 18.5152 258.247 18.8864C258.247 19.197 258.321 19.464 258.469 19.6875C258.62 19.9072 258.813 20.0909 259.048 20.2386C259.283 20.3826 259.529 20.5019 259.787 20.5966C260.045 20.6875 260.281 20.7614 260.497 20.8182L261.679 21.1364C261.982 21.2159 262.319 21.3258 262.69 21.4659C263.065 21.6061 263.423 21.7973 263.764 22.0398C264.109 22.2784 264.393 22.5852 264.616 22.9602C264.84 23.3352 264.952 23.7955 264.952 24.3409C264.952 24.9697 264.787 25.5379 264.457 26.0455C264.132 26.553 263.654 26.9564 263.026 27.2557C262.401 27.5549 261.641 27.7045 260.747 27.7045C259.914 27.7045 259.192 27.5701 258.582 27.3011C257.976 27.0322 257.499 26.6572 257.151 26.1761C256.806 25.6951 256.611 25.1364 256.565 24.5H258.02C258.058 24.9394 258.205 25.303 258.463 25.5909C258.724 25.875 259.054 26.0871 259.452 26.2273C259.853 26.3636 260.285 26.4318 260.747 26.4318C261.285 26.4318 261.768 26.3447 262.196 26.1705C262.624 25.9924 262.963 25.7462 263.213 25.4318C263.463 25.1136 263.588 24.7424 263.588 24.3182C263.588 23.9318 263.48 23.6174 263.264 23.375C263.048 23.1326 262.764 22.9356 262.412 22.7841C262.06 22.6326 261.679 22.5 261.27 22.3864L259.838 21.9773C258.929 21.7159 258.209 21.3428 257.679 20.858C257.149 20.3731 256.884 19.7386 256.884 18.9545C256.884 18.303 257.06 17.7348 257.412 17.25C257.768 16.7614 258.245 16.3826 258.844 16.1136C259.446 15.8409 260.118 15.7045 260.861 15.7045C261.611 15.7045 262.277 15.839 262.861 16.108C263.444 16.3731 263.906 16.7367 264.247 17.1989C264.592 17.661 264.774 18.1856 264.793 18.7727H263.429ZM267.087 30.7727V18.7727H268.382V20.1591H268.541C268.64 20.0076 268.776 19.8144 268.95 19.5795C269.128 19.3409 269.382 19.1288 269.712 18.9432C270.045 18.7538 270.496 18.6591 271.064 18.6591C271.799 18.6591 272.446 18.8428 273.007 19.2102C273.568 19.5777 274.005 20.0985 274.32 20.7727C274.634 21.447 274.791 22.2424 274.791 23.1591C274.791 24.0833 274.634 24.8845 274.32 25.5625C274.005 26.2367 273.57 26.7595 273.013 27.1307C272.456 27.4981 271.814 27.6818 271.087 27.6818C270.526 27.6818 270.077 27.589 269.74 27.4034C269.403 27.214 269.143 27 268.962 26.7614C268.78 26.5189 268.64 26.3182 268.541 26.1591H268.428V30.7727H267.087ZM268.405 23.1364C268.405 23.7955 268.501 24.3769 268.695 24.8807C268.888 25.3807 269.17 25.7727 269.541 26.0568C269.912 26.3371 270.367 26.4773 270.905 26.4773C271.465 26.4773 271.933 26.3295 272.308 26.0341C272.687 25.7348 272.971 25.3333 273.161 24.8295C273.354 24.322 273.45 23.7576 273.45 23.1364C273.45 22.5227 273.356 21.9697 273.166 21.4773C272.981 20.9811 272.698 20.589 272.32 20.3011C271.945 20.0095 271.473 19.8636 270.905 19.8636C270.359 19.8636 269.901 20.0019 269.53 20.2784C269.159 20.5511 268.878 20.9337 268.689 21.4261C268.5 21.9148 268.405 22.4848 268.405 23.1364ZM278.178 22.25V27.5H276.837V15.8636H278.178V20.1364H278.291C278.496 19.6856 278.803 19.3277 279.212 19.0625C279.625 18.7936 280.174 18.6591 280.859 18.6591C281.454 18.6591 281.975 18.7784 282.422 19.017C282.869 19.2519 283.215 19.6136 283.462 20.1023C283.712 20.5871 283.837 21.2045 283.837 21.9545V27.5H282.496V22.0455C282.496 21.3523 282.316 20.8163 281.956 20.4375C281.6 20.0549 281.106 19.8636 280.473 19.8636C280.034 19.8636 279.64 19.9564 279.291 20.142C278.946 20.3277 278.674 20.5985 278.473 20.9545C278.276 21.3106 278.178 21.7424 278.178 22.25ZM289.949 27.6818C289.108 27.6818 288.383 27.4962 287.773 27.125C287.167 26.75 286.699 26.2273 286.369 25.5568C286.044 24.8826 285.881 24.0985 285.881 23.2045C285.881 22.3106 286.044 21.5227 286.369 20.8409C286.699 20.1553 287.157 19.6212 287.744 19.2386C288.335 18.8523 289.025 18.6591 289.812 18.6591C290.267 18.6591 290.716 18.7348 291.159 18.8864C291.602 19.0379 292.006 19.2841 292.369 19.625C292.733 19.9621 293.023 20.4091 293.239 20.9659C293.455 21.5227 293.562 22.2083 293.562 23.0227V23.5909H286.835V22.4318H292.199C292.199 21.9394 292.1 21.5 291.903 21.1136C291.71 20.7273 291.434 20.4223 291.074 20.1989C290.718 19.9754 290.297 19.8636 289.812 19.8636C289.278 19.8636 288.816 19.9962 288.426 20.2614C288.04 20.5227 287.742 20.8636 287.534 21.2841C287.326 21.7045 287.222 22.1553 287.222 22.6364V23.4091C287.222 24.0682 287.335 24.6269 287.562 25.0852C287.794 25.5398 288.114 25.8864 288.523 26.125C288.932 26.3598 289.407 26.4773 289.949 26.4773C290.301 26.4773 290.619 26.428 290.903 26.3295C291.191 26.2273 291.439 26.0758 291.648 25.875C291.856 25.6705 292.017 25.4167 292.131 25.1136L293.426 25.4773C293.29 25.9167 293.061 26.303 292.739 26.6364C292.417 26.9659 292.019 27.2235 291.545 27.4091C291.072 27.5909 290.54 27.6818 289.949 27.6818ZM295.602 27.5V18.7727H296.898V20.0909H296.989C297.148 19.6591 297.436 19.3087 297.852 19.0398C298.269 18.7708 298.739 18.6364 299.261 18.6364C299.36 18.6364 299.483 18.6383 299.631 18.642C299.778 18.6458 299.89 18.6515 299.966 18.6591V20.0227C299.92 20.0114 299.816 19.9943 299.653 19.9716C299.494 19.9451 299.326 19.9318 299.148 19.9318C298.723 19.9318 298.345 20.0208 298.011 20.1989C297.682 20.3731 297.42 20.6155 297.227 20.9261C297.038 21.233 296.943 21.5833 296.943 21.9773V27.5H295.602ZM304.949 27.6818C304.108 27.6818 303.383 27.4962 302.773 27.125C302.167 26.75 301.699 26.2273 301.369 25.5568C301.044 24.8826 300.881 24.0985 300.881 23.2045C300.881 22.3106 301.044 21.5227 301.369 20.8409C301.699 20.1553 302.157 19.6212 302.744 19.2386C303.335 18.8523 304.025 18.6591 304.812 18.6591C305.267 18.6591 305.716 18.7348 306.159 18.8864C306.602 19.0379 307.006 19.2841 307.369 19.625C307.733 19.9621 308.023 20.4091 308.239 20.9659C308.455 21.5227 308.562 22.2083 308.562 23.0227V23.5909H301.835V22.4318H307.199C307.199 21.9394 307.1 21.5 306.903 21.1136C306.71 20.7273 306.434 20.4223 306.074 20.1989C305.718 19.9754 305.297 19.8636 304.812 19.8636C304.278 19.8636 303.816 19.9962 303.426 20.2614C303.04 20.5227 302.742 20.8636 302.534 21.2841C302.326 21.7045 302.222 22.1553 302.222 22.6364V23.4091C302.222 24.0682 302.335 24.6269 302.562 25.0852C302.794 25.5398 303.114 25.8864 303.523 26.125C303.932 26.3598 304.407 26.4773 304.949 26.4773C305.301 26.4773 305.619 26.428 305.903 26.3295C306.191 26.2273 306.439 26.0758 306.648 25.875C306.856 25.6705 307.017 25.4167 307.131 25.1136L308.426 25.4773C308.29 25.9167 308.061 26.303 307.739 26.6364C307.417 26.9659 307.019 27.2235 306.545 27.4091C306.072 27.5909 305.54 27.6818 304.949 27.6818Z" fill="#27355D"/>
<path d="M395 31.0002L390.657 26.6572M390.657 26.6572C391.4 25.9143 391.989 25.0324 392.391 24.0618C392.793 23.0911 393 22.0508 393 21.0002C393 19.9496 392.793 18.9093 392.391 17.9387C391.989 16.968 391.4 16.0861 390.657 15.3432C389.914 14.6003 389.032 14.011 388.062 13.609C387.091 13.2069 386.051 13 385 13C383.95 13 382.909 13.2069 381.939 13.609C380.968 14.011 380.086 14.6003 379.343 15.3432C377.843 16.8435 377 18.8784 377 21.0002C377 23.122 377.843 25.1569 379.343 26.6572C380.844 28.1575 382.878 29.0004 385 29.0004C387.122 29.0004 389.157 28.1575 390.657 26.6572Z" stroke="#C3C3C3" stroke-width="2.5" stroke-linecap="round" stroke-linejoin="round"/>
</svg>
