<svg width="120" height="120" viewBox="0 0 120 120" fill="none" xmlns="http://www.w3.org/2000/svg">
<circle cx="60" cy="60" r="58" fill="#F5F5F5" stroke="#5777D0" stroke-width="4"/>
<path d="M60 30C56.8174 30 53.7652 31.2643 51.5147 33.5147C49.2643 35.7652 48 38.8174 48 42C48 45.1826 49.2643 48.2348 51.5147 50.4853C53.7652 52.7357 56.8174 54 60 54C63.1826 54 66.2348 52.7357 68.4853 50.4853C70.7357 48.2348 72 45.1826 72 42C72 38.8174 70.7357 35.7652 68.4853 33.5147C66.2348 31.2643 63.1826 30 60 30ZM75 60H45C42.6131 60 40.3239 60.9482 38.636 62.636C36.9482 64.3239 36 66.6131 36 69C36 75.696 38.754 81.06 43.272 84.69C47.718 88.26 53.682 90 60 90C66.318 90 72.282 88.26 76.728 84.69C81.24 81.06 84 75.696 84 69C84 66.6131 83.0518 64.3239 81.364 62.636C79.6761 60.9482 77.3869 60 75 60Z" fill="#5777D0"/>
</svg>
