<svg width="44" height="44" viewBox="0 0 44 44" fill="none" xmlns="http://www.w3.org/2000/svg">
<rect x="0.5" y="0.5" width="43" height="43" rx="21.5" fill="#F5F5F5"/>
<rect x="0.5" y="0.5" width="43" height="43" rx="21.5" stroke="#C3C3C3"/>
<g clip-path="url(#clip0_1221_18423)">
<path d="M12.7187 10.0315C11.3087 10.3252 10.1439 11.4256 9.99994 12.9065C9.85124 14.4359 9.99994 16.0562 9.99994 17.594V27.1565C9.99994 28.9152 9.55585 31.3001 10.6874 32.7815C11.9098 34.3817 14.1396 34.0002 15.9062 34.0002H26.3124H29.5937C30.1358 34.0002 30.7499 34.0797 31.2812 33.969C32.6912 33.6752 33.856 32.5748 33.9999 31.094C34.1486 29.5645 33.9999 27.9442 33.9999 26.4065V16.844C33.9999 15.0852 34.444 12.7003 33.3124 11.219C32.09 9.61874 29.8602 10.0002 28.0937 10.0002H17.6874H14.4062C13.8641 10.0002 13.25 9.92076 12.7187 10.0315ZM21.2499 18.5315L20.5937 20.3127H21.7187L20.7812 22.5627L21.6249 22.6565C21.5323 22.9079 21.4077 23.3814 21.2187 23.5783C21.0802 23.7226 20.8681 23.6877 20.6874 23.6877C20.2787 23.6877 19.4529 23.857 19.2343 23.4065C19.134 23.1998 19.278 22.9392 19.3593 22.7502C19.5293 22.3553 19.7552 21.9519 19.8437 21.5315C19.6397 21.5315 19.382 21.5717 19.1874 21.5002C18.4582 21.2321 19.2694 20.0598 19.4374 19.6565C19.5554 19.3732 19.6959 18.7579 19.9531 18.5783C20.3142 18.3262 20.864 18.501 21.2499 18.5315ZM13.8437 24.4377C14.1016 24.4377 14.4847 24.5143 14.6406 24.2502C14.8064 23.9692 14.6874 23.3512 14.6874 23.0315V19.9377C14.6874 19.6477 14.541 18.7625 14.7968 18.5783C15.0072 18.4269 15.8905 18.4589 15.9843 18.719C16.1378 19.1446 15.9999 19.8592 15.9999 20.3127V23.3127C15.9999 23.8268 16.0889 24.425 15.8749 24.9065C15.6708 25.3657 14.7215 25.7757 14.2499 25.4221C14.0425 25.2665 13.8948 24.6805 13.8437 24.4377ZM28.0937 18.5315V19.0002C28.4433 19.0002 28.8822 18.9286 29.2187 19.0315C30.3415 19.3745 30.2499 20.4773 30.2499 21.4377C30.4372 21.4377 30.6291 21.4231 30.8124 21.469C31.8899 21.7383 31.7499 22.8156 31.7499 23.6877C31.7499 24.1523 31.8372 24.7023 31.5312 25.094C31.1941 25.5254 30.6423 25.469 30.1562 25.469C30.0051 25.469 29.7565 25.5168 29.6249 25.4221C29.379 25.245 29.2704 24.7185 29.2187 24.4377C29.5269 24.4377 30.0829 24.5432 30.3281 24.3127C30.6171 24.041 30.4988 22.9784 30.1562 22.7971C29.9746 22.701 29.6981 22.7502 29.4999 22.7502H28.0937V25.469H26.7812V22.7502H25.4687V21.4377H26.7812V20.3127H25.9374V19.0002H26.7812V18.5315H28.0937ZM25.0937 19.0002V20.3127H24.3437V24.2502H25.5624V25.469H21.2499L21.7499 24.2971L22.9374 24.2502V20.3127H22.1874V19.0002H25.0937ZM30.4374 20.3127C30.4374 20.0463 30.3891 19.726 30.4687 19.469C30.7822 18.4571 32.3077 19.2726 31.5468 20.1096C31.4603 20.2047 31.3083 20.2512 31.1874 20.2815C30.9474 20.3415 30.6831 20.3127 30.4374 20.3127ZM13.8437 20.3127L13.4531 23.7815L12.8124 24.9065L12.2499 23.4065L12.5312 20.3127H13.8437ZM18.1562 20.3127L18.4374 23.4065L17.8749 24.8127H17.6874C17.1843 24.0161 17.1199 23.1943 17.0312 22.2815C16.9682 21.6333 16.8437 20.9652 16.8437 20.3127H18.1562ZM28.0937 20.3127V21.4377H28.9374V20.3127H28.0937ZM21.0624 24.2502L20.5937 25.469H18.5312L19.0312 24.2033L19.7499 24.219L21.0624 24.2502Z" fill="#5777D0"/>
</g>
<defs>
<clipPath id="clip0_1221_18423">
<rect width="24" height="24" fill="white" transform="translate(10 10)"/>
</clipPath>
</defs>
</svg>
