<svg width="44" height="44" viewBox="0 0 44 44" fill="none" xmlns="http://www.w3.org/2000/svg">
<rect x="0.5" y="0.5" width="43" height="43" rx="21.5" fill="#F5F5F5"/>
<rect x="0.5" y="0.5" width="43" height="43" rx="21.5" stroke="#C3C3C3"/>
<g clip-path="url(#clip0_1221_18400)">
<path d="M12.7187 10.0319C11.3087 10.3257 10.1439 11.4261 9.99994 12.9069C9.85124 14.4364 9.99994 16.0567 9.99994 17.5944V27.1569C9.99994 28.9157 9.55585 31.3006 10.6874 32.7819C11.9098 34.3822 14.1396 34.0007 15.9062 34.0007H26.3124H29.5937C30.1358 34.0007 30.7499 34.0801 31.2812 33.9694C32.6912 33.6757 33.856 32.5753 33.9999 31.0944C34.1486 29.565 33.9999 27.9447 33.9999 26.4069V16.8444C33.9999 15.0857 34.444 12.7008 33.3124 11.2194C32.09 9.61923 29.8602 10.0007 28.0937 10.0007H17.6874H14.4062C13.8641 10.0007 13.25 9.92125 12.7187 10.0319ZM21.2499 18.5319L20.5937 20.3132H21.7187L20.7812 22.5632L21.6249 22.6569C21.5323 22.9083 21.4077 23.3819 21.2187 23.5788C21.0802 23.7231 20.8681 23.6882 20.6874 23.6882C20.2787 23.6882 19.4529 23.8575 19.2343 23.4069C19.134 23.2003 19.278 22.9396 19.3593 22.7507C19.5293 22.3558 19.7552 21.9524 19.8437 21.5319C19.6397 21.5319 19.382 21.5722 19.1874 21.5007C18.4582 21.2326 19.2694 20.0603 19.4374 19.6569C19.5554 19.3737 19.6959 18.7584 19.9531 18.5788C20.3142 18.3267 20.864 18.5015 21.2499 18.5319ZM13.8437 24.4382C14.1016 24.4382 14.4847 24.5148 14.6406 24.2507C14.8064 23.9697 14.6874 23.3517 14.6874 23.0319V19.9382C14.6874 19.6482 14.541 18.763 14.7968 18.5788C15.0072 18.4274 15.8905 18.4594 15.9843 18.7194C16.1378 19.1451 15.9999 19.8597 15.9999 20.3132V23.3132C15.9999 23.8273 16.0889 24.4255 15.8749 24.9069C15.6708 25.3662 14.7215 25.7762 14.2499 25.4226C14.0425 25.267 13.8948 24.681 13.8437 24.4382ZM28.0937 18.5319V19.0007C28.4433 19.0007 28.8822 18.9291 29.2187 19.0319C30.3415 19.375 30.2499 20.4778 30.2499 21.4382C30.4372 21.4382 30.6291 21.4236 30.8124 21.4694C31.8899 21.7388 31.7499 22.8161 31.7499 23.6882C31.7499 24.1528 31.8372 24.7027 31.5312 25.0944C31.1941 25.5259 30.6423 25.4694 30.1562 25.4694C30.0051 25.4694 29.7565 25.5173 29.6249 25.4226C29.379 25.2455 29.2704 24.719 29.2187 24.4382C29.5269 24.4382 30.0829 24.5437 30.3281 24.3132C30.6171 24.0415 30.4988 22.9789 30.1562 22.7976C29.9746 22.7015 29.6981 22.7507 29.4999 22.7507H28.0937V25.4694H26.7812V22.7507H25.4687V21.4382H26.7812V20.3132H25.9374V19.0007H26.7812V18.5319H28.0937ZM25.0937 19.0007V20.3132H24.3437V24.2507H25.5624V25.4694H21.2499L21.7499 24.2976L22.9374 24.2507V20.3132H22.1874V19.0007H25.0937ZM30.4374 20.3132C30.4374 20.0468 30.3891 19.7264 30.4687 19.4694C30.7822 18.4576 32.3077 19.2731 31.5468 20.1101C31.4603 20.2052 31.3083 20.2517 31.1874 20.2819C30.9474 20.342 30.6831 20.3132 30.4374 20.3132ZM13.8437 20.3132L13.4531 23.7819L12.8124 24.9069L12.2499 23.4069L12.5312 20.3132H13.8437ZM18.1562 20.3132L18.4374 23.4069L17.8749 24.8132H17.6874C17.1843 24.0165 17.1199 23.1948 17.0312 22.2819C16.9682 21.6338 16.8437 20.9657 16.8437 20.3132H18.1562ZM28.0937 20.3132V21.4382H28.9374V20.3132H28.0937ZM21.0624 24.2507L20.5937 25.4694H18.5312L19.0312 24.2038L19.7499 24.2194L21.0624 24.2507Z" fill="#5777D0"/>
</g>
<defs>
<clipPath id="clip0_1221_18400">
<rect width="24" height="24" fill="white" transform="translate(10 10)"/>
</clipPath>
</defs>
</svg>
